HIERARCHY
ROOT Hips
{
	OFFSET 0.0000 0.0000 0.0000
	CHANNELS 6 Xposition Yposition Zposition Zrotation Xrotation Yrotation
	JOINT Spine1
	{
		OFFSET -0.0137 5.0038 -0.0537
		CHANNELS 3 Zrotation Xrotation Yrotation
		JOINT Spine2
		{
			OFFSET -0.0000 7.1253 -0.0298
			CHANNELS 3 Zrotation Xrotation Yrotation
			JOINT Chest
			{
				OFFSET -0.0000 7.5501 -0.8160
				CHANNELS 3 Zrotation Xrotation Yrotation
				JOINT Neck1
				{
					OFFSET -0.1817 26.3113 -0.5533
					CHANNELS 3 Zrotation Xrotation Yrotation
					JOINT Neck2
					{
						OFFSET -0.0000 7.7094 2.3026
						CHANNELS 3 Zrotation Xrotation Yrotation
						JOINT Head
						{
							OFFSET -0.0000 6.1289 1.9537
							CHANNELS 3 Zrotation Xrotation Yrotation
							JOINT Jaw
							{
								OFFSET 0.0026 0.4756 3.0949
								CHANNELS 3 Zrotation Xrotation Yrotation
								End Site
								{
									OFFSET 0.0 1.0 0.0
								}
							}
							JOINT LeftEye
							{
								OFFSET 3.2064 5.3802 7.5869
								CHANNELS 3 Zrotation Xrotation Yrotation
								End Site
								{
									OFFSET 0.0 1.0 0.0
								}
							}
							JOINT RightEye
							{
								OFFSET -3.2224 5.3619 7.5582
								CHANNELS 3 Zrotation Xrotation Yrotation
								End Site
								{
									OFFSET 0.0 1.0 0.0
								}
							}
						}
					}
				}
				JOINT LeftShoulder
				{
					OFFSET 1.6217 23.2372 5.1134
					CHANNELS 3 Zrotation Xrotation Yrotation
					JOINT LeftArm
					{
						OFFSET 14.9198 0.0000 -5.5023
						CHANNELS 3 Zrotation Xrotation Yrotation
						JOINT LeftForeArm
						{
							OFFSET 28.7393 0.0000 -0.0026
							CHANNELS 3 Zrotation Xrotation Yrotation
							JOINT LeftHand
							{
								OFFSET 27.0940 -0.0000 0.0026
								CHANNELS 3 Zrotation Xrotation Yrotation
								JOINT LeftHandThumbEnd
								{
									OFFSET 12.2686 -3.2202 4.8331
									CHANNELS 3 Zrotation Xrotation Yrotation
									End Site
									{
										OFFSET 0.0 1.0 0.0
									}
								}
								JOINT LeftHandMiddleEnd
								{
									OFFSET 19.0120 -0.3129 -0.0340
									CHANNELS 3 Zrotation Xrotation Yrotation
									End Site
									{
										OFFSET 0.0 1.0 0.0
									}
								}
							}
						}
					}
				}
				JOINT RightShoulder
				{
					OFFSET -1.3801 23.1803 5.2142
					CHANNELS 3 Zrotation Xrotation Yrotation
					JOINT RightArm
					{
						OFFSET -15.0372 0.0000 -5.5456
						CHANNELS 3 Zrotation Xrotation Yrotation
						JOINT RightForeArm
						{
							OFFSET -28.7366 0.0000 -0.0026
							CHANNELS 3 Zrotation Xrotation Yrotation
							JOINT RightHand
							{
								OFFSET -27.1336 -0.0000 0.0026
								CHANNELS 3 Zrotation Xrotation Yrotation
								JOINT RightHandThumbEnd
								{
									OFFSET -12.2642 -3.2115 4.8040
									CHANNELS 3 Zrotation Xrotation Yrotation
									End Site
									{
										OFFSET 0.0 1.0 0.0
									}
								}
								JOINT RightHandMiddleEnd
								{
									OFFSET -19.0006 -0.3066 -0.0316
									CHANNELS 3 Zrotation Xrotation Yrotation
									End Site
									{
										OFFSET 0.0 1.0 0.0
									}
								}
							}
						}
					}
				}
			}
		}
	}
	JOINT LeftLeg
	{
		OFFSET 10.0432 -8.4345 2.5957
		CHANNELS 3 Zrotation Xrotation Yrotation
		JOINT LeftShin
		{
			OFFSET -0.0000 -43.2218 -0.8029
			CHANNELS 3 Zrotation Xrotation Yrotation
			JOINT LeftFoot
			{
				OFFSET 0.0000 -42.1551 -3.4815
				CHANNELS 3 Zrotation Xrotation Yrotation
				JOINT LeftToeBase
				{
					OFFSET 0.0000 -5.0595 13.2315
					CHANNELS 3 Zrotation Xrotation Yrotation
					End Site
					{
						OFFSET 0.0 1.0 0.0
					}
				}
			}
		}
	}
	JOINT RightLeg
	{
		OFFSET -10.0473 -8.2953 2.6203
		CHANNELS 3 Zrotation Xrotation Yrotation
		JOINT RightShin
		{
			OFFSET 0.0000 -43.3622 -0.8056
			CHANNELS 3 Zrotation Xrotation Yrotation
			JOINT RightFoot
			{
				OFFSET 0.0000 -42.1174 -3.4784
				CHANNELS 3 Zrotation Xrotation Yrotation
				JOINT RightToeBase
				{
					OFFSET -0.0000 -5.0796 13.2842
					CHANNELS 3 Zrotation Xrotation Yrotation
					End Site
					{
						OFFSET 0.0 1.0 0.0
					}
				}
			}
		}
	}
}
MOTION
Frames: 12
Frame Time: 0.033333
-3.2193 90.3866 5.1302 1.9686 -9.2961 -0.0143 -0.4941 10.8483 -0.5762 -0.6628 -0.9668 -0.4691 -1.3162 22.2403 -3.3993 -0.8398 8.9985 3.7084 -0.3376 -3.5025 0.6217 2.2753 -11.3902 -1.4173 0.0146 0.0381 0.0810 0.7187 -10.4385 -3.7520 -0.6893 -10.5164 3.9157 -5.6670 13.5526 -11.4700 3.9390 -7.8248 -45.1881 -3.1417 1.8682 -119.8011 -1.4324 16.8457 -13.6836 -15.3339 10.4383 14.5856 -58.4210 1.4870 1.6682 3.8804 12.7055 18.4823 22.1600 -12.8505 40.5369 0.8820 0.7418 64.4849 93.0086 -81.2310 -63.4185 16.0227 7.5231 -16.0891 48.0224 -3.4893 -4.3240 16.1463 -21.3067 15.7700 -0.4405 37.5113 -0.5903 -14.8015 -8.9814 -14.9051 1.6509 0.0517 -1.6857 -15.8623 -22.6784 -24.6366 0.3908 47.9469 0.3475 12.2867 -18.2442 -4.4448 -1.3731 1.0833 0.9720
-2.7380 90.3895 5.2275 1.9375 -9.2992 0.1828 -0.5154 10.8429 -0.5899 -0.5882 -1.0329 -0.5287 -1.2681 22.3110 -3.4706 -0.8496 8.6130 3.6742 -0.3724 -3.4942 0.7096 2.3240 -11.0769 -1.3774 0.0018 0.0323 0.0950 0.7167 -10.4192 -3.7451 -0.7124 -10.4900 3.9391 -5.0187 13.3491 -11.5917 2.4902 -7.2177 -49.3106 -2.9582 1.6300 -116.3755 -2.8013 15.8456 -14.0080 -15.4932 10.4284 14.6671 -58.7123 1.4481 1.6765 3.9321 12.7010 18.6467 22.1298 -14.5548 41.0345 0.6603 0.7503 63.9765 95.1085 -80.8098 -65.3725 16.0831 7.4560 -16.2197 48.0800 -3.4601 -4.2921 15.8909 -21.5263 15.8384 -0.4840 38.1443 -0.6355 -14.4734 -9.3263 -15.0704 1.6529 0.0885 -1.7176 -16.1826 -22.5914 -24.5436 0.3691 47.6905 0.3594 12.7155 -17.9974 -4.7804 -1.3836 1.1236 0.9644
-2.2316 90.3660 5.2926 1.9372 -9.3091 0.3225 -0.5628 10.8553 -0.5775 -0.5318 -1.0819 -0.6461 -1.1886 22.3910 -3.4982 -0.8744 8.2439 3.6678 -0.3106 -3.5222 0.7182 2.2401 -10.7158 -1.0897 -0.0048 0.0307 0.1043 0.7139 -10.4294 -3.7441 -0.7216 -10.4957 3.9567 -4.2532 13.2211 -11.8998 1.1234 -6.6574 -53.3004 -2.4576 1.4403 -112.0893 -4.3242 14.6637 -14.7376 -15.7159 10.3869 14.7721 -59.0791 1.4069 1.6383 3.9795 12.6498 18.7779 22.2063 -16.2817 41.5678 0.5752 0.6744 63.6949 93.9941 -80.7641 -64.3262 16.2447 7.3915 -16.3304 48.2029 -3.4663 -4.3108 15.5480 -21.7740 16.1262 -0.4921 38.8418 -0.6293 -13.9960 -9.7201 -15.2730 1.6595 0.1248 -1.7371 -16.6158 -22.5820 -24.4212 0.3570 47.4854 0.3631 13.1360 -17.7307 -4.9262 -1.3886 1.1389 0.9806
-1.6579 90.3593 5.3106 1.9113 -9.2905 0.3270 -0.5971 10.8481 -0.5715 -0.4966 -1.1237 -0.7425 -1.1177 22.4840 -3.5074 -0.9222 7.8690 3.6595 -0.2259 -3.5373 0.7873 2.1882 -10.4548 -0.7689 -0.0090 0.0308 0.1137 0.7100 -10.4484 -3.7418 -0.7254 -10.5134 3.9736 -3.7026 13.1023 -12.3627 0.3630 -6.0609 -56.6801 -1.8286 1.3639 -107.5931 -5.1857 13.4597 -15.5109 -15.8378 10.4011 14.8477 -59.3867 1.4008 1.5945 3.9942 12.5635 18.7758 22.2141 -17.5583 42.3391 0.4689 0.6438 63.6571 91.3749 -81.1477 -61.9850 16.3612 7.3509 -16.3094 48.2865 -3.4443 -4.3199 15.1939 -22.0173 16.5435 -0.4636 39.4909 -0.5811 -13.5138 -10.1141 -15.4651 1.6616 0.1526 -1.7566 -17.0235 -22.5858 -24.2553 0.3441 47.1675 0.3585 13.5308 -17.4039 -4.9574 -1.3916 1.1127 0.9801
-1.0174 90.3627 5.3407 1.8646 -9.2615 0.2151 -0.6155 10.8260 -0.5418 -0.4702 -1.1518 -0.8367 -1.0920 22.5931 -3.5596 -0.9547 7.5238 3.6413 -0.1549 -3.5397 0.9599 2.2178 -10.2881 -0.4500 -0.0111 0.0310 0.1197 0.7046 -10.4524 -3.7375 -0.7240 -10.5138 3.9814 -3.3433 12.9672 -12.9201 0.2807 -5.4896 -59.3623 -1.2178 1.2611 -103.2256 -5.4248 12.2640 -16.2168 -15.8842 10.4661 14.9268 -59.5570 1.4100 1.5636 3.9289 12.4878 18.6721 22.0654 -18.3106 43.3945 0.2981 0.6410 63.9036 88.8546 -81.7661 -59.8589 16.3858 7.3668 -16.2317 48.3334 -3.3873 -4.3102 14.8524 -22.2413 17.1164 -0.4290 40.0771 -0.5265 -13.0272 -10.5023 -15.7408 1.6611 0.2038 -1.7657 -17.3897 -22.5813 -24.0815 0.3365 46.7333 0.3654 13.9236 -16.9841 -4.9603 -1.3932 1.0645 0.9744
-0.3712 90.3900 5.3210 1.8116 -9.2333 -0.0026 -0.6367 10.8253 -0.5132 -0.4544 -1.1678 -0.9261 -1.1114 22.6898 -3.6376 -0.9811 7.2356 3.6310 -0.1097 -3.5468 1.1865 2.2767 -10.1110 -0.1300 -0.0100 0.0301 0.1135 0.7086 -10.4607 -3.7436 -0.7249 -10.5210 3.9733 -3.0998 12.8423 -13.4845 0.7153 -5.0287 -61.1645 -0.7232 1.1115 -99.3223 -5.2546 11.0515 -16.7734 -15.8634 10.5201 14.9625 -59.6461 1.4213 1.5370 3.7969 12.4090 18.4942 21.8355 -18.6802 44.5478 0.2511 0.6186 64.4015 84.9525 -82.4566 -56.4372 16.3877 7.3843 -16.1321 48.3813 -3.3286 -4.2976 14.5058 -22.4223 17.7806 -0.4039 40.5897 -0.4802 -12.5518 -10.8616 -16.0423 1.6547 0.2893 -1.7710 -17.7192 -22.5942 -23.9030 0.3448 46.2642 0.3941 14.2489 -16.5071 -4.8742 -1.3959 1.0293 0.9686
0.2779 90.4455 5.3105 1.7673 -9.2024 -0.3263 -0.6683 10.8259 -0.4735 -0.4481 -1.1620 -0.9957 -1.1573 22.7316 -3.7020 -1.0366 7.0301 3.6199 -0.0585 -3.5487 1.4103 2.3476 -9.9311 0.1950 -0.0072 0.0301 0.1017 0.7116 -10.4665 -3.7576 -0.7219 -10.5278 3.9633 -2.9462 12.7398 -14.0379 1.5090 -4.5025 -62.1427 -0.3443 0.9941 -95.9168 -4.8484 9.8060 -17.1818 -15.8124 10.5865 14.9960 -59.7079 1.4248 1.5120 3.6225 12.3567 18.2493 21.5970 -18.6875 45.7389 0.3660 0.6380 65.0096 81.0888 -83.2294 -52.9998 16.3537 7.4179 -16.0584 48.3878 -3.2808 -4.2808 14.1653 -22.5276 18.5399 -0.3905 40.9953 -0.4511 -12.1427 -11.2015 -16.3083 1.6502 0.3541 -1.7694 -18.0371 -22.5827 -23.7280 0.3715 45.6855 0.4439 14.5241 -15.9692 -4.6837 -1.3984 0.9531 0.9644
0.9347 90.5423 5.2469 1.7312 -9.1869 -0.7192 -0.7049 10.8271 -0.4338 -0.4469 -1.1563 -1.0410 -1.2222 22.7517 -3.7284 -1.0914 6.9210 3.6286 -0.0169 -3.5486 1.5840 2.3847 -9.7743 0.5532 -0.0053 0.0284 0.0879 0.7149 -10.4702 -3.7725 -0.7212 -10.5336 3.9501 -2.8576 12.6738 -14.5448 2.6177 -3.8776 -62.3081 -0.0724 0.9237 -93.0777 -4.2520 8.6432 -17.4556 -15.7425 10.6583 15.0195 -59.7853 1.4642 1.4786 3.3975 12.3253 17.9296 21.3529 -18.2636 47.0036 0.5154 0.6500 65.6754 77.5265 -83.9967 -49.7918 16.3293 7.4693 -16.0078 48.4461 -3.2507 -4.2813 13.8263 -22.5284 19.3394 -0.3802 41.2698 -0.4248 -11.7703 -11.5125 -16.5011 1.6472 0.4075 -1.7566 -18.3466 -22.5238 -23.5643 0.3966 44.9857 0.4910 14.7613 -15.3823 -4.3998 -1.3990 0.8327 0.9555
1.5874 90.6450 5.1860 1.6900 -9.1967 -1.2134 -0.7448 10.8386 -0.3747 -0.4481 -1.1451 -1.0795 -1.2796 22.7472 -3.7100 -1.1630 6.9070 3.6605 0.0121 -3.5489 1.7562 2.3808 -9.6233 0.8451 -0.0046 0.0266 0.0778 0.7151 -10.4801 -3.7849 -0.7196 -10.5431 3.9431 -2.8208 12.6540 -14.9619 3.9959 -3.1893 -61.5951 0.1400 0.8666 -91.0009 -3.5227 7.6328 -17.5826 -15.6430 10.7294 15.0140 -59.8179 1.5224 1.4358 3.1368 12.2978 17.6121 21.0959 -17.4742 48.2255 0.7288 0.6650 66.4039 72.9607 -84.7871 -45.5303 16.2712 7.5145 -16.0044 48.5337 -3.2380 -4.2904 13.5393 -22.4413 20.1724 -0.3830 41.4446 -0.4163 -11.4374 -11.7890 -16.6184 1.6442 0.4539 -1.7422 -18.6246 -22.4442 -23.3916 0.4136 44.2670 0.5281 14.9704 -14.8004 -4.0118 -1.4001 0.7175 0.9589
2.1859 90.7580 5.1510 1.6433 -9.2200 -1.7936 -0.7960 10.8385 -0.3725 -0.4573 -1.1300 -1.0528 -1.3000 22.7122 -3.6375 -1.2894 6.9706 3.7133 0.0320 -3.5438 1.8852 2.3457 -9.5296 1.1191 -0.0007 0.0270 0.0606 0.7179 -10.4826 -3.8030 -0.7142 -10.5437 3.9241 -2.7899 12.7087 -15.2517 5.5282 -2.5620 -60.0066 0.3031 0.8590 -89.8195 -2.7917 6.6903 -17.5316 -15.5834 10.7807 14.9998 -59.8523 1.5750 1.4295 2.8666 12.2542 17.2849 20.8523 -16.2671 49.4789 0.8572 0.7097 67.1001 65.1500 -85.4703 -37.9220 16.2129 7.5403 -16.0243 48.6655 -3.2384 -4.3159 13.3149 -22.2732 20.9761 -0.3723 41.4924 -0.3937 -11.1884 -12.0055 -16.6717 1.6426 0.4873 -1.7204 -18.8220 -22.3582 -23.2480 0.4418 43.5369 0.5851 15.1152 -14.2336 -3.5048 -1.3992 0.6102 0.9680
2.7525 90.8825 5.1161 1.6077 -9.2610 -2.5262 -0.8406 10.8415 -0.3218 -0.4838 -1.1214 -1.0386 -1.2988 22.6570 -3.4992 -1.4349 7.0561 3.7802 0.0254 -3.5323 2.0168 2.3032 -9.4245 1.3046 0.0050 0.0266 0.0446 0.7232 -10.4817 -3.8188 -0.7078 -10.5353 3.9064 -2.7706 12.8297 -15.3940 7.1676 -1.9635 -57.5767 0.4407 0.8431 -89.4847 -2.1465 5.7367 -17.3193 -15.4603 10.8055 14.9422 -59.8462 1.6065 1.4361 2.6419 12.2115 17.0075 20.5846 -14.6784 50.6807 0.9702 0.7434 67.8051 52.5894 -86.0210 -25.4845 16.1853 7.5924 -16.0114 48.9210 -3.2078 -4.3429 13.1654 -22.0346 21.8088 -0.3644 41.4767 -0.3671 -10.9974 -12.1850 -16.6308 1.6432 0.4886 -1.7110 -18.9608 -22.2703 -23.0569 0.4510 42.8261 0.6073 15.2149 -13.7146 -2.9068 -1.3986 0.4994 0.9879
3.2366 90.9964 5.0619 1.5828 -9.3136 -3.3272 -0.8896 10.8419 -0.2952 -0.5098 -1.1200 -0.9873 -1.2781 22.6005 -3.3535 -1.6160 7.1597 3.8419 0.0343 -3.5266 2.0914 2.2208 -9.3743 1.5176 0.0106 0.0272 0.0269 0.7265 -10.4824 -3.8368 -0.7001 -10.5310 3.8859 -2.7412 13.0022 -15.3743 8.7617 -1.4471 -54.5015 0.5997 0.8439 -89.9014 -1.5452 5.0044 -16.9530 -15.3256 10.7965 14.8651 -59.8179 1.6034 1.4899 2.4245 12.1776 16.7886 20.3113 -12.9234 51.8033 1.0187 0.7416 68.5355 36.2014 -86.2378 -9.1345 16.1990 7.6264 -15.9361 49.1348 -3.1812 -4.3262 13.0889 -21.7518 22.5847 -0.3574 41.4026 -0.3333 -10.8708 -12.3424 -16.5128 1.6435 0.4552 -1.7068 -19.0196 -22.2085 -22.8626 0.4509 42.1917 0.6080 15.2364 -13.2723 -2.2742 -1.3970 0.3702 0.9939
